<svg width="18" height="19" viewBox="0 0 18 19" fill="none" xmlns="http://www.w3.org/2000/svg">
    <g clip-path="url(#clip0_89_92)">
        <path d="M10.3381 12.3679C10.4306 13.0718 10.5232 13.7604 10.6157 14.4337C10.739 15.107 10.8007 15.6731 10.8007 16.1322C10.8007 16.9278 10.6311 17.5552 10.2919 18.0142C9.9526 18.4734 9.47457 18.7028 8.85774 18.7028C8.24091 18.7028 7.74747 18.4886 7.37737 18.0602C7.03811 17.6012 6.86849 16.9892 6.86849 16.224C6.86849 15.7343 6.93018 15.1529 7.05353 14.4796C7.17689 13.8063 7.26942 13.1177 7.33111 12.4138C6.89932 12.7199 6.3596 13.133 5.71194 13.6533C5.06427 14.1429 4.50914 14.4949 4.04653 14.7091C3.4297 15.0152 2.85914 15.1682 2.33484 15.1682C1.56381 15.1682 1.03951 14.8468 0.761936 14.2042C0.515206 13.6533 0.530626 13.1024 0.808197 12.5516C1.08577 12.0007 1.53296 11.5876 2.14978 11.3121C2.33484 11.2509 2.59699 11.1591 2.93623 11.0367C3.30633 10.8837 3.67643 10.7306 4.04653 10.5776C4.44746 10.4246 4.83298 10.2869 5.20306 10.1645C5.57315 10.0115 5.85072 9.88906 6.03578 9.79724C5.81989 9.73604 5.5269 9.64423 5.1568 9.52181C4.7867 9.3688 4.38577 9.21578 3.954 9.06277C3.55306 8.87914 3.16755 8.71082 2.79745 8.55781C2.42735 8.40479 2.13436 8.28238 1.91849 8.19056C1.30166 7.88453 0.869879 7.45607 0.62315 6.90521C0.407262 6.32375 0.453523 5.78819 0.761936 5.29852C1.10119 4.71705 1.64091 4.42632 2.3811 4.42632C2.81287 4.42632 3.22922 4.51813 3.63017 4.70175C3.87689 4.82416 4.15446 4.99249 4.46288 5.20671C4.80212 5.39034 5.14138 5.60455 5.48064 5.84939C5.81989 6.09422 6.14373 6.33905 6.45213 6.58388C6.79138 6.82871 7.08438 7.04292 7.33111 7.22655C7.23858 6.46146 7.13064 5.74227 7.00727 5.06899C6.91474 4.36512 6.86849 3.79894 6.86849 3.3705C6.86849 2.63602 7.05353 2.03924 7.42362 1.58019C7.79372 1.09053 8.27177 0.845703 8.85774 0.845703C9.41288 0.845703 9.8755 1.09053 10.2456 1.58019C10.6157 2.06985 10.8007 2.68192 10.8007 3.4164C10.8007 3.84486 10.739 4.41102 10.6157 5.11489C10.5232 5.78819 10.4152 6.49206 10.2919 7.22655C11.0012 6.73689 11.618 6.32375 12.1423 5.9871C12.6666 5.65047 13.1447 5.39034 13.5764 5.20671C14.1933 4.90068 14.7947 4.74766 15.3807 4.74766C16.0591 4.74766 16.5681 5.00779 16.9072 5.52806C17.2158 6.04832 17.2465 6.58388 16.9998 7.13474C16.753 7.655 16.2751 8.12936 15.5657 8.55781C15.1956 8.80264 14.7176 9.03215 14.1316 9.24638C13.5456 9.43 12.79 9.62893 11.8648 9.84316C12.1423 9.93496 12.4662 10.0421 12.8362 10.1645C13.2063 10.2869 13.5764 10.4093 13.9465 10.5317C14.3166 10.6542 14.6559 10.7766 14.9643 10.899C15.2727 10.9908 15.4886 11.0673 15.6119 11.1285C16.2596 11.4039 16.7223 11.8477 16.9998 12.4598C17.2774 13.0412 17.2774 13.6074 16.9998 14.1583C16.6605 14.7703 16.1363 15.0764 15.4269 15.0764C14.8718 15.0764 14.1933 14.8621 13.3914 14.4337C12.9288 14.1889 12.4045 13.8522 11.8185 13.4238C11.2633 12.9953 10.7699 12.6434 10.3381 12.3679Z" fill="#0D0D0D"/>
    </g>
    <defs>
        <clipPath id="clip0_89_92">
        <rect width="17.2174" height="18" fill="white" transform="translate(0.217407 0.75)"/>
        </clipPath>
    </defs>
</svg>
