<svg width="333" height="336" viewBox="0 0 333 336" fill="none" xmlns="http://www.w3.org/2000/svg">
<path d="M5.98698 130.442L18.981 133.968L19.861 130.726C20.146 129.676 20.2415 128.682 20.1477 127.745C20.0385 126.803 19.7778 125.962 19.3657 125.22C18.9381 124.474 18.3725 123.839 17.6688 123.317C16.9538 122.775 16.1408 122.38 15.2298 122.133C14.3187 121.886 13.4254 121.817 12.5499 121.928C11.6632 122.019 10.8468 122.278 10.1008 122.706C9.35475 123.133 8.70437 123.728 8.14963 124.489C7.57945 125.246 7.15189 126.15 6.86695 127.2L5.98698 130.442ZM20.131 136.146L3.89421 131.739L5.24559 126.76C5.59338 125.478 6.12593 124.371 6.84324 123.438C7.54929 122.486 8.37348 121.74 9.31581 121.199C10.2623 120.644 11.2842 120.3 12.3814 120.166C13.4828 120.018 14.5971 120.096 15.7243 120.402C16.8516 120.708 17.8528 121.203 18.7279 121.888C19.5917 122.554 20.2916 123.366 20.8275 124.323C21.3521 125.261 21.6804 126.312 21.8124 127.475C21.9444 128.638 21.8344 129.869 21.4824 131.166L20.131 136.146Z" fill="#F6F6F6"/>
<path d="M26.9073 114.041L11.5123 107.315L16.0378 96.9565L17.5773 97.6291L13.7725 106.338L18.3909 108.356L21.7346 100.703L23.2741 101.375L19.9304 109.029L26.0884 111.719L29.8933 103.01L31.4328 103.682L26.9073 114.041Z" fill="#F6F6F6"/>
<path d="M32.1457 93.159C32.5322 93.2623 32.9437 93.278 33.3803 93.2059C33.817 93.1339 34.2416 92.9891 34.6542 92.7715C35.0751 92.5403 35.4758 92.2499 35.8561 91.9005C36.231 91.5291 36.5595 91.1108 36.8416 90.6456C37.1486 90.1394 37.3623 89.6328 37.4826 89.1257C37.5893 88.6103 37.6108 88.1275 37.5471 87.6772C37.4916 87.2132 37.3468 86.7886 37.1127 86.4033C36.8785 86.018 36.563 85.7051 36.1663 85.4645C35.4822 85.0497 34.7649 84.9983 34.0143 85.3103C33.2584 85.6004 32.3578 86.2986 31.3126 87.405C28.6237 90.2653 26.2874 91.094 24.3037 89.891C23.7564 89.5591 23.3276 89.14 23.0172 88.6336C22.7014 88.1053 22.5079 87.5295 22.4367 86.9063C22.3656 86.2831 22.4194 85.6234 22.5983 84.9273C22.7635 84.2228 23.0619 83.5149 23.4933 82.8035C23.8583 82.2015 24.2669 81.6821 24.719 81.2452C25.1656 80.7863 25.6407 80.4195 26.1442 80.1447C26.6476 79.8699 27.1643 79.6967 27.6942 79.6251C28.2188 79.5316 28.7414 79.5491 29.2622 79.6778L29.0777 81.2781C28.4089 81.1158 27.6934 81.2619 26.9311 81.7166C26.1689 82.1713 25.514 82.8501 24.9665 83.753C24.3691 84.738 24.0931 85.656 24.1385 86.5068C24.1702 87.3494 24.5144 87.9698 25.1711 88.368C25.7867 88.7413 26.507 88.7571 27.3318 88.4152C28.1512 88.0514 29.1069 87.2931 30.199 86.1402C31.5337 84.7416 32.7507 83.861 33.85 83.4985C34.9356 83.1277 35.9915 83.2534 37.0176 83.8756C37.6332 84.249 38.1358 84.7315 38.5254 85.3233C38.9014 85.9068 39.1467 86.5514 39.2613 87.2572C39.3706 87.941 39.3507 88.668 39.2017 89.4384C39.0472 90.1868 38.7543 90.9167 38.3229 91.6281C37.9661 92.2164 37.5466 92.7385 37.0642 93.1945C36.5682 93.6422 36.0396 94.0046 35.4785 94.2819C34.9175 94.5591 34.3348 94.7485 33.7307 94.8499C33.1348 94.9376 32.5408 94.9143 31.9488 94.7798L32.1457 93.159Z" fill="#F6F6F6"/>
<path d="M34.12 67.6515L47.4837 77.8326L46.3928 79.2644L33.0292 69.0834L34.12 67.6515Z" fill="#F6F6F6"/>
<path d="M56.5906 54.5394L61.2553 59.0373C61.2084 61.4371 60.4576 63.3913 59.0027 64.9002C58.2142 65.7179 57.3088 66.3341 56.2867 66.7488C55.253 67.1523 54.1987 67.3582 53.1239 67.3665C52.0375 67.3636 50.9646 67.1625 49.9049 66.7631C48.8449 66.3411 47.8887 65.7192 47.0364 64.8974C46.1841 64.0755 45.5278 63.1426 45.0675 62.0987C44.6183 61.0432 44.3669 59.9784 44.3134 58.9044C44.271 57.8189 44.4329 56.7636 44.7989 55.7385C45.1535 54.7024 45.7139 53.7869 46.4802 52.9922C47.2243 52.2205 48.0678 51.6224 49.0105 51.1979C49.9644 50.7618 50.8599 50.5362 51.697 50.5209L52.169 52.2097C50.3937 52.2759 48.9341 52.9022 47.7902 54.0886C47.1682 54.7336 46.7176 55.466 46.4383 56.2858C46.1475 57.0945 46.0213 57.9285 46.0596 58.7878C46.1089 59.6355 46.3222 60.4747 46.6995 61.3051C47.0652 62.1245 47.5878 62.8618 48.2673 63.5171C48.9584 64.1834 49.7258 64.69 50.5694 65.0367C51.4131 65.3835 52.2652 65.5716 53.1257 65.6012C53.9858 65.6082 54.8149 65.463 55.6129 65.1656C56.4108 64.8682 57.1097 64.4085 57.7094 63.7865C58.2425 63.2337 58.6721 62.5922 58.9983 61.862C59.313 61.1208 59.4645 60.4334 59.453 59.8L56.5851 57.0346L53.953 59.7643L52.7091 58.5649L56.5906 54.5394Z" fill="#F6F6F6"/>
<path d="M60.9649 39.9682L77.6338 44.9646L69.124 33.7673L70.5571 32.6782L80.7224 46.0538L79.1364 47.2591L62.4339 42.2581L70.9582 53.4745L69.5251 54.5636L59.3598 41.188L60.9649 39.9682Z" fill="#F6F6F6"/>
<path d="M100.046 18.0865C99.2367 18.4323 98.544 18.9285 97.9677 19.575C97.3851 20.2068 96.9442 20.9259 96.6451 21.7323C96.3606 22.5325 96.2306 23.3885 96.2549 24.3003C96.2729 25.1974 96.4736 26.0947 96.8572 26.9922C97.2345 27.8749 97.7516 28.637 98.4085 29.2785C99.0802 29.9136 99.8108 30.4018 100.6 30.7429C101.39 31.084 102.21 31.2729 103.061 31.3095C103.927 31.3398 104.742 31.1914 105.507 30.8645C106.051 30.6318 106.523 30.3518 106.923 30.0245C107.322 29.6971 107.679 29.3099 107.992 28.8627L104.823 27.5548L105.493 25.8853L108.851 27.269C109.161 26.5277 109.301 25.6759 109.273 24.7137C109.244 23.7514 109.038 22.8216 108.655 21.9241C108.284 21.056 107.78 20.3055 107.144 19.6725C106.502 19.0248 105.786 18.5303 104.997 18.1892C104.222 17.8418 103.401 17.6529 102.536 17.6226C101.685 17.586 100.855 17.7407 100.046 18.0865ZM95.18 27.709C94.7147 26.6202 94.4836 25.5097 94.4869 24.3773C94.4838 23.2302 94.674 22.1484 95.0574 21.132C95.4408 20.1155 96.0005 19.2064 96.7367 18.4046C97.4665 17.5881 98.3317 16.966 99.3321 16.5385C100.421 16.0732 101.52 15.8558 102.629 15.8863C103.732 15.9021 104.776 16.1259 105.761 16.5576C106.746 16.9892 107.637 17.6089 108.434 18.4164C109.24 19.203 109.873 20.1332 110.332 21.2073C110.841 22.399 111.09 23.5716 111.078 24.7249C111.067 25.8783 110.873 26.9527 110.498 27.9482L111.894 28.5263L111.224 30.1958L109.64 29.5419C109.173 30.281 108.635 30.876 108.028 31.3271C107.42 31.7782 106.807 32.1358 106.189 32.3999C105.13 32.8526 104.049 33.071 102.946 33.0552C101.843 33.0394 100.795 32.8261 99.8014 32.4155C98.8165 31.9838 97.9179 31.3673 97.1057 30.5661C96.2935 29.7648 95.6516 28.8124 95.18 27.709Z" fill="#F6F6F6"/>
<path d="M118.688 9.65817L120.437 9.23048L122.997 19.6979C123.146 20.304 123.418 20.8468 123.816 21.3261C124.209 21.7899 124.681 22.1687 125.23 22.4625C125.791 22.737 126.404 22.9167 127.067 23.0016C127.73 23.0865 128.411 23.0433 129.111 22.8723C129.81 22.7012 130.434 22.425 130.983 22.0436C131.532 21.6622 131.985 21.2221 132.341 20.7233C132.692 20.209 132.936 19.6553 133.071 19.0622C133.202 18.4536 133.193 17.8463 133.045 17.2402L130.485 6.77274L132.233 6.34506L134.794 16.8125C134.999 17.6517 135.014 18.4881 134.839 19.3215C134.66 20.1394 134.328 20.9042 133.844 21.6157C133.374 22.3235 132.768 22.9413 132.024 23.4692C131.292 23.9777 130.459 24.346 129.527 24.5741C128.594 24.8022 127.676 24.8538 126.773 24.7289C125.885 24.6002 125.063 24.3399 124.309 23.948C123.55 23.5406 122.903 23.0153 122.367 22.3723C121.827 21.7137 121.454 20.9648 121.249 20.1256L118.688 9.65817Z" fill="#F6F6F6"/>
<path d="M145.328 21.2102L143.768 4.48277L155.023 3.43313L155.179 5.10587L145.716 5.98838L146.184 11.0066L154.5 10.2311L154.656 11.9038L146.34 12.6793L146.964 19.3703L156.427 18.4878L156.583 20.1605L145.328 21.2102Z" fill="#F6F6F6"/>
<path d="M181.601 4.09344L179.951 20.8123L178.16 20.6356L179.809 3.91673L181.601 4.09344Z" fill="#F6F6F6"/>
<path d="M195.341 6.00757L202.306 21.9544L205.346 8.22301L207.104 8.61213L203.472 25.0149L201.527 24.5842L194.544 8.60875L191.498 22.3636L189.741 21.9745L193.373 5.57175L195.341 6.00757Z" fill="#F6F6F6"/>
<path d="M214.145 23.9026C214.114 24.3014 214.173 24.7088 214.324 25.1249C214.475 25.5411 214.695 25.9321 214.984 26.298C215.288 26.6696 215.647 27.0104 216.06 27.3205C216.494 27.6213 216.965 27.8678 217.474 28.0602C218.027 28.2695 218.565 28.387 219.085 28.4127C219.611 28.4235 220.09 28.3564 220.521 28.2114C220.967 28.0721 221.358 27.8522 221.694 27.5516C222.03 27.2509 222.28 26.8836 222.444 26.4496C222.727 25.7013 222.647 24.9866 222.203 24.3057C221.779 23.6155 220.928 22.8576 219.65 22.0321C216.346 19.9111 215.105 17.7655 215.925 15.5954C216.151 14.9967 216.485 14.4986 216.926 14.1008C217.388 13.6938 217.919 13.3984 218.518 13.2146C219.118 13.0307 219.776 12.9632 220.493 13.0119C221.216 13.0456 221.967 13.2095 222.745 13.5037C223.404 13.7526 223.989 14.0594 224.501 14.4241C225.034 14.7794 225.481 15.1794 225.843 15.6242C226.206 16.069 226.47 16.5453 226.637 17.0533C226.825 17.5519 226.903 18.0689 226.872 18.6044L225.265 18.7154C225.302 18.0282 225.028 17.3515 224.442 16.6851C223.855 16.0188 223.068 15.499 222.081 15.1256C221.003 14.7183 220.05 14.6146 219.222 14.8147C218.399 14.9998 217.852 15.4516 217.581 16.17C217.326 16.8435 217.442 17.5544 217.929 18.3029C218.436 19.0421 219.357 19.8432 220.69 20.7062C222.309 21.7629 223.397 22.7985 223.954 23.8131C224.517 24.8127 224.586 25.8737 224.162 26.9962C223.907 27.6697 223.525 28.2521 223.014 28.7432C222.509 29.2194 221.92 29.5784 221.247 29.8201C220.595 30.0524 219.876 30.1657 219.092 30.1599C218.328 30.1448 217.557 29.9902 216.778 29.696C216.135 29.4527 215.545 29.1356 215.008 28.7447C214.478 28.3388 214.025 27.8854 213.65 27.3844C213.275 26.8834 212.982 26.3452 212.772 25.7698C212.577 25.2 212.491 24.6117 212.515 24.005L214.145 23.9026Z" fill="#F6F6F6"/>
<path d="M235.623 28.5514L239.734 30.7871C240.184 31.0317 240.655 31.1875 241.146 31.2546C241.646 31.3076 242.123 31.2846 242.577 31.1857C243.039 31.0727 243.457 30.8902 243.831 30.6382C244.213 30.3721 244.51 30.0422 244.724 29.6486C244.954 29.227 245.083 28.7875 245.113 28.3303C245.143 27.8732 245.073 27.434 244.901 27.0128C244.751 26.5852 244.507 26.1795 244.17 25.7956C243.846 25.4193 243.445 25.1012 242.967 24.8413L238.856 22.6056L235.623 28.5514ZM238.077 20.2699L243.77 23.3654C244.473 23.7476 245.065 24.2155 245.547 24.769C246.029 25.3226 246.378 25.9217 246.592 26.5662C246.827 27.2044 246.923 27.8664 246.878 28.5521C246.84 29.2239 246.65 29.876 246.306 30.5085C245.977 31.1129 245.534 31.6096 244.976 31.9985C244.419 32.3874 243.804 32.6634 243.133 32.8265C242.461 32.9895 241.759 33.0262 241.024 32.9365C240.304 32.8544 239.606 32.6299 238.932 32.263L234.82 30.0274L231.621 35.9099L230.04 35.05L238.077 20.2699Z" fill="#F6F6F6"/>
<path d="M259.809 33.3857L250.174 47.1481L248.7 46.1158L258.335 32.3533L259.809 33.3857Z" fill="#F6F6F6"/>
<path d="M258.095 52.9855L269.217 40.3943L274.092 44.7002C274.691 45.2298 275.164 45.8183 275.51 46.4656C275.856 47.113 276.062 47.7747 276.126 48.4508C276.213 49.1256 276.158 49.7921 275.961 50.4504C275.774 51.0968 275.443 51.6897 274.966 52.2294C274.5 52.757 273.953 53.1593 273.324 53.4363C272.705 53.7013 272.051 53.8382 271.36 53.847C270.691 53.8544 270.015 53.7263 269.33 53.4627C268.656 53.2097 268.02 52.8184 267.42 52.2887L267.025 51.9392L267.035 60.8822L265.236 59.2933L265.226 50.3503L263.877 49.1586L259.444 54.1771L258.095 52.9855ZM269.454 42.8451L264.989 47.8995L268.515 51.0137C268.91 51.3633 269.34 51.6257 269.805 51.801C270.281 51.9868 270.746 52.0771 271.199 52.0717C271.664 52.0769 272.101 51.9931 272.509 51.8205C272.941 51.6464 273.31 51.3855 273.617 51.0377C273.935 50.678 274.16 50.2786 274.291 49.8398C274.423 49.4009 274.457 48.951 274.394 48.4901C274.344 48.0398 274.198 47.6011 273.956 47.174C273.725 46.7349 273.399 46.33 272.979 45.9593L269.454 42.8451Z" fill="#F6F6F6"/>
<path d="M288.878 63.0528L280.9 65.7281L284.891 70.4626L288.878 63.0528ZM291.252 62.3696L282.692 78.2802L281.47 76.8305L284.039 72.0592L279.182 66.2971L274.045 68.0222L272.823 66.5725L289.953 60.8281L291.252 62.3696Z" fill="#F6F6F6"/>
<path d="M286.245 85.9215C286.498 86.0423 286.77 86.0921 287.063 86.0711C287.352 86.0722 287.589 86.0109 287.776 85.8874C287.64 85.594 287.61 85.2877 287.687 84.9685C287.772 84.6626 287.948 84.4214 288.215 84.2449C288.522 84.0419 288.846 83.981 289.188 84.0622C289.542 84.1346 289.813 84.3109 289.998 84.5912C290.227 84.9382 290.259 85.3199 290.093 85.7364C289.936 86.1663 289.604 86.5489 289.097 86.8842C288.59 87.2195 288.043 87.4083 287.458 87.4504C286.858 87.5014 286.271 87.3816 285.695 87.091L286.245 85.9215Z" fill="#F6F6F6"/>
<path d="M317.646 110.839L315.588 105.873L301.62 111.662L300.931 109.999L314.899 104.21L312.84 99.2437L314.392 98.6005L319.198 110.196L317.646 110.839Z" fill="#F6F6F6"/>
<path d="M306.474 124.929L322.726 120.671L325.591 131.606L323.965 132.032L321.557 122.838L316.681 124.115L318.798 132.195L317.173 132.62L315.056 124.541L308.556 126.244L310.964 135.438L309.339 135.864L306.474 124.929Z" fill="#F6F6F6"/>
<path d="M314.654 157.566C313.865 156.995 313.197 156.217 312.651 155.233C312.105 154.248 311.769 153.207 311.645 152.11C311.521 151.013 311.626 149.946 311.959 148.91C312.311 147.888 312.833 146.96 313.528 146.124C314.224 145.305 315.064 144.614 316.047 144.052C317.047 143.504 318.136 143.163 319.312 143.03C320.489 142.897 321.626 142.985 322.724 143.296C323.824 143.622 324.804 144.107 325.666 144.75C326.53 145.409 327.24 146.206 327.797 147.141C328.369 148.075 328.719 149.098 328.845 150.211C328.969 151.308 328.865 152.382 328.533 153.434C328.219 154.5 327.735 155.409 327.079 156.159L325.751 155.102C326.289 154.445 326.673 153.717 326.905 152.918C327.154 152.133 327.231 151.319 327.136 150.477C327.035 149.587 326.758 148.773 326.304 148.035C325.866 147.296 325.304 146.667 324.617 146.149C323.93 145.631 323.147 145.252 322.266 145.014C321.402 144.774 320.493 144.708 319.539 144.816C318.585 144.924 317.705 145.192 316.901 145.622C316.114 146.065 315.434 146.609 314.863 147.253C314.31 147.912 313.894 148.651 313.617 149.471C313.357 150.306 313.277 151.16 313.376 152.035C313.471 152.877 313.72 153.654 314.123 154.366C314.527 155.093 315.064 155.708 315.733 156.212L314.654 157.566Z" fill="#F6F6F6"/>
<path d="M329.639 169.554L315.167 179.217L329.219 179.793L329.146 181.592L312.36 180.903L312.441 178.913L326.939 169.227L312.862 168.65L312.936 166.851L329.722 167.54L329.639 169.554Z" fill="#F6F6F6"/>
<path d="M316.764 205.346C317.705 205.538 318.616 205.553 319.499 205.39C320.397 205.231 321.209 204.931 321.936 204.492C322.662 204.053 323.284 203.486 323.802 202.791C324.319 202.097 324.668 201.311 324.847 200.433C325.027 199.555 325.015 198.695 324.811 197.853C324.607 197.011 324.258 196.246 323.762 195.557C323.266 194.867 322.636 194.273 321.872 193.774C321.124 193.279 320.28 192.935 319.339 192.742C318.399 192.55 317.48 192.534 316.581 192.693C315.699 192.856 314.893 193.165 314.163 193.62C313.433 194.075 312.809 194.65 312.292 195.344C311.774 196.039 311.428 196.817 311.251 197.679C311.072 198.557 311.086 199.409 311.292 200.235C311.496 201.077 311.846 201.842 312.342 202.532C312.838 203.221 313.46 203.813 314.208 204.309C314.971 204.808 315.823 205.154 316.764 205.346ZM319.681 190.95C320.857 191.191 321.919 191.628 322.867 192.263C323.815 192.898 324.59 193.66 325.192 194.551C325.81 195.444 326.237 196.43 326.474 197.507C326.727 198.588 326.739 199.684 326.512 200.797C326.285 201.91 325.852 202.908 325.215 203.79C324.574 204.688 323.796 205.419 322.88 205.983C321.962 206.563 320.942 206.959 319.821 207.171C318.715 207.386 317.575 207.373 316.399 207.133C315.223 206.893 314.161 206.455 313.213 205.821C312.281 205.189 311.506 204.427 310.888 203.533C310.267 202.655 309.838 201.677 309.601 200.6C309.361 199.538 309.354 198.451 309.582 197.338C309.809 196.225 310.243 195.219 310.884 194.322C311.525 193.424 312.297 192.683 313.2 192.1C314.118 191.52 315.13 191.123 316.236 190.908C317.357 190.696 318.505 190.71 319.681 190.95Z" fill="#F6F6F6"/>
<path d="M305.623 213.702L321.436 219.447L320.821 221.139L306.587 215.968L303.686 223.953L302.107 223.379L305.623 213.702Z" fill="#F6F6F6"/>
<path d="M299.436 247.754C300.281 248.211 301.149 248.489 302.041 248.589C302.947 248.696 303.811 248.645 304.634 248.435C305.456 248.225 306.216 247.862 306.913 247.347C307.609 246.832 308.17 246.181 308.596 245.393C309.022 244.604 309.259 243.778 309.308 242.913C309.357 242.048 309.244 241.214 308.969 240.411C308.694 239.608 308.263 238.857 307.677 238.158C307.104 237.467 306.396 236.893 305.551 236.437C304.707 235.98 303.832 235.698 302.926 235.591C302.034 235.491 301.173 235.553 300.343 235.777C299.512 236.002 298.749 236.371 298.052 236.886C297.356 237.401 296.799 238.045 296.38 238.819C295.954 239.608 295.721 240.427 295.679 241.278C295.63 242.143 295.744 242.977 296.019 243.78C296.294 244.583 296.718 245.331 297.29 246.022C297.876 246.72 298.592 247.298 299.436 247.754ZM306.397 234.821C307.453 235.391 308.343 236.117 309.067 236.999C309.79 237.881 310.311 238.836 310.629 239.862C310.962 240.897 311.085 241.964 311 243.063C310.929 244.171 310.624 245.224 310.084 246.224C309.544 247.223 308.841 248.053 307.975 248.713C307.102 249.386 306.145 249.861 305.106 250.136C304.059 250.425 302.968 250.508 301.833 250.386C300.713 250.272 299.625 249.929 298.569 249.359C297.514 248.789 296.624 248.062 295.9 247.18C295.19 246.306 294.67 245.351 294.337 244.317C293.997 243.297 293.87 242.237 293.955 241.137C294.032 240.051 294.341 239.009 294.881 238.009C295.421 237.01 296.128 236.173 297.001 235.499C297.874 234.826 298.828 234.34 299.861 234.044C300.908 233.755 301.992 233.668 303.112 233.782C304.247 233.904 305.342 234.25 306.397 234.821Z" fill="#F6F6F6"/>
<path d="M285.283 268.333L280.134 264.398C279.906 262.009 280.428 259.982 281.701 258.316C282.391 257.414 283.22 256.698 284.188 256.169C285.168 255.65 286.192 255.325 287.259 255.194C288.339 255.072 289.428 255.149 290.526 255.425C291.627 255.723 292.648 256.231 293.589 256.95C294.53 257.669 295.289 258.521 295.865 259.505C296.432 260.502 296.804 261.531 296.98 262.592C297.146 263.666 297.106 264.732 296.86 265.793C296.626 266.863 296.174 267.836 295.504 268.713C294.853 269.565 294.083 270.256 293.195 270.785C292.298 271.328 291.434 271.654 290.604 271.765L289.942 270.142C291.698 269.873 293.076 269.083 294.077 267.774C294.621 267.062 294.985 266.283 295.169 265.437C295.365 264.6 295.395 263.757 295.259 262.908C295.112 262.071 294.805 261.262 294.335 260.48C293.878 259.708 293.274 259.035 292.524 258.462C291.761 257.879 290.941 257.464 290.063 257.216C289.186 256.968 288.318 256.878 287.459 256.947C286.604 257.039 285.797 257.278 285.038 257.665C284.28 258.052 283.638 258.588 283.113 259.275C282.647 259.885 282.294 260.571 282.053 261.334C281.825 262.106 281.753 262.807 281.837 263.435L285.003 265.854L287.305 262.841L288.678 263.89L285.283 268.333Z" fill="#F6F6F6"/>
<path d="M282.801 282.993L270.724 271.313L271.976 270.02L284.052 281.699L282.801 282.993Z" fill="#F6F6F6"/>
<path d="M267.948 293.575L265.388 285.56L260.597 289.482L267.948 293.575ZM268.597 295.959L252.812 287.17L254.279 285.969L259.013 288.608L264.844 283.834L263.193 278.672L264.661 277.471L270.157 294.682L268.597 295.959Z" fill="#F6F6F6"/>
<path d="M235.427 315.237C236.222 314.86 236.894 314.337 237.445 313.668C238.002 313.014 238.414 312.278 238.681 311.46C238.934 310.649 239.03 309.789 238.97 308.879C238.916 307.983 238.68 307.094 238.261 306.213C237.85 305.346 237.303 304.604 236.621 303.989C235.925 303.381 235.176 302.922 234.373 302.613C233.571 302.303 232.744 302.147 231.892 302.144C231.026 302.148 230.217 302.328 229.466 302.685C228.931 302.939 228.47 303.237 228.084 303.58C227.698 303.923 227.357 304.324 227.061 304.783L230.279 305.965L229.676 307.66L226.266 306.41C225.986 307.163 225.879 308.019 225.946 308.98C226.012 309.94 226.255 310.861 226.673 311.743C227.078 312.595 227.611 313.326 228.271 313.933C228.939 314.555 229.674 315.021 230.476 315.33C231.264 315.647 232.091 315.803 232.957 315.799C233.809 315.802 234.632 315.615 235.427 315.237ZM239.909 305.43C240.417 306.5 240.692 307.6 240.733 308.732C240.782 309.878 240.634 310.966 240.291 311.997C239.948 313.028 239.425 313.959 238.721 314.789C238.024 315.634 237.184 316.289 236.201 316.756C235.132 317.264 234.042 317.525 232.933 317.538C231.83 317.566 230.778 317.383 229.777 316.991C228.776 316.598 227.861 316.014 227.032 315.239C226.195 314.485 225.527 313.58 225.026 312.525C224.47 311.355 224.175 310.193 224.141 309.04C224.107 307.887 224.258 306.806 224.593 305.796L223.176 305.274L223.779 303.579L225.388 304.17C225.826 303.413 226.339 302.797 226.929 302.322C227.518 301.848 228.116 301.466 228.723 301.178C229.764 300.684 230.835 300.423 231.938 300.395C233.041 300.367 234.097 300.539 235.105 300.91C236.107 301.302 237.029 301.883 237.872 302.651C238.715 303.42 239.394 304.346 239.909 305.43Z" fill="#F6F6F6"/>
<path d="M217.132 324.396L215.401 324.892L212.43 314.534C212.258 313.934 211.964 313.403 211.548 312.939C211.136 312.491 210.65 312.131 210.089 311.86C209.518 311.607 208.899 311.452 208.233 311.393C207.567 311.335 206.888 311.405 206.196 311.603C205.504 311.802 204.891 312.103 204.357 312.505C203.824 312.908 203.389 313.366 203.053 313.878C202.722 314.406 202.501 314.969 202.389 315.567C202.282 316.18 202.315 316.787 202.487 317.386L205.459 327.745L203.728 328.241L200.757 317.883C200.518 317.052 200.47 316.217 200.612 315.378C200.758 314.553 201.06 313.776 201.516 313.046C201.957 312.32 202.539 311.679 203.261 311.122C203.973 310.585 204.79 310.184 205.713 309.919C206.635 309.655 207.551 309.567 208.458 309.656C209.351 309.749 210.182 309.977 210.951 310.339C211.726 310.716 212.393 311.215 212.954 311.837C213.52 312.473 213.922 313.207 214.16 314.037L217.132 324.396Z" fill="#F6F6F6"/>
<path d="M190.057 313.905L192.276 330.558L181.072 332.051L180.85 330.386L190.27 329.13L189.605 324.134L181.326 325.238L181.104 323.572L189.383 322.469L188.495 315.808L179.074 317.063L178.852 315.398L190.057 313.905Z" fill="#F6F6F6"/>
<path d="M154.488 332.44L155.476 315.67L157.273 315.775L156.285 332.546L154.488 332.44Z" fill="#F6F6F6"/>
<path d="M137.745 321.159L141.251 328.384L143.832 314.608L145.601 314.94L142.507 331.452L140.573 331.09L136.416 322.522L129.321 328.981L127.339 328.61L130.433 312.097L132.202 312.429L129.603 326.3L135.693 320.775L137.745 321.159Z" fill="#F6F6F6"/>
<path d="M116.455 316.74L112.047 315.169C111.564 314.997 111.075 314.916 110.579 314.926C110.078 314.951 109.61 315.048 109.176 315.216C108.737 315.399 108.353 315.644 108.023 315.951C107.687 316.273 107.444 316.645 107.294 317.067C107.132 317.519 107.072 317.974 107.114 318.43C107.155 318.886 107.293 319.309 107.528 319.699C107.742 320.098 108.046 320.461 108.439 320.788C108.817 321.109 109.262 321.362 109.774 321.544L114.183 323.115L116.455 316.74ZM115.314 325.302L109.21 323.127C108.457 322.858 107.799 322.488 107.237 322.016C106.675 321.543 106.238 321.006 105.927 320.402C105.595 319.808 105.398 319.169 105.336 318.484C105.269 317.815 105.356 317.141 105.598 316.463C105.829 315.815 106.19 315.256 106.68 314.785C107.171 314.314 107.735 313.946 108.373 313.681C109.011 313.416 109.7 313.271 110.439 313.246C111.164 313.215 111.887 313.329 112.611 313.587L117.019 315.158L119.267 308.85L120.963 309.455L115.314 325.302Z" fill="#F6F6F6"/>
<path d="M93.1837 316.556L91.5978 315.705L96.695 306.21C96.9901 305.661 97.1503 305.075 97.1756 304.453C97.1932 303.845 97.0961 303.248 96.884 302.662C96.6503 302.082 96.3153 301.539 95.8791 301.033C95.4428 300.526 94.9075 300.102 94.2732 299.762C93.6388 299.421 92.99 299.209 92.3267 299.125C91.6634 299.042 91.0327 299.066 90.4347 299.199C89.8291 299.346 89.2778 299.595 88.7809 299.946C88.2763 300.311 87.8765 300.768 87.5813 301.318L82.4841 310.812L80.8982 309.96L85.9954 300.466C86.4041 299.705 86.9522 299.073 87.6397 298.57C88.3196 298.082 89.0778 297.735 89.9141 297.531C90.7363 297.318 91.6005 297.265 92.5066 297.37C93.391 297.481 94.2561 297.764 95.1019 298.218C95.9477 298.672 96.6647 299.248 97.2529 299.945C97.827 300.635 98.2636 301.378 98.5625 302.174C98.854 302.984 98.9839 303.807 98.9525 304.644C98.9134 305.495 98.6895 306.301 98.2809 307.062L93.1837 316.556Z" fill="#F6F6F6"/>
<path d="M81.0161 290.062L71.0203 303.595L69.5724 302.525L78.5701 290.344L71.7363 285.296L72.7344 283.945L81.0161 290.062Z" fill="#F6F6F6"/>
<path d="M62.7151 281.034C62.9006 280.68 63.0061 280.282 63.0314 279.84C63.0568 279.398 63.0086 278.952 62.8867 278.502C62.7533 278.04 62.5578 277.586 62.3001 277.138C62.0199 276.691 61.6837 276.279 61.2917 275.902C60.8651 275.491 60.4175 275.172 59.9492 274.943C59.4697 274.726 59.0033 274.599 58.5499 274.563C58.0851 274.515 57.639 274.564 57.2118 274.708C56.7846 274.852 56.4102 275.091 56.0885 275.425C55.5339 276.002 55.3266 276.691 55.4666 277.491C55.5839 278.292 56.0679 279.324 56.9184 280.586C59.1201 283.837 59.4167 286.298 57.8083 287.97C57.3646 288.431 56.8617 288.757 56.2997 288.949C55.715 289.142 55.1108 289.204 54.4871 289.137C53.8634 289.07 53.2316 288.873 52.5916 288.546C51.9405 288.23 51.3151 287.784 50.7155 287.208C50.2081 286.719 49.7908 286.207 49.4636 285.67C49.1137 285.134 48.8599 284.59 48.7021 284.039C48.5443 283.487 48.4885 282.945 48.5348 282.412C48.5584 281.88 48.6901 281.374 48.9297 280.894L50.4507 281.425C50.1458 282.042 50.1316 282.772 50.4082 283.615C50.6848 284.458 51.2037 285.246 51.9647 285.978C52.7949 286.777 53.6301 287.247 54.4702 287.389C55.2993 287.543 55.98 287.343 56.5124 286.79C57.0116 286.271 57.1847 285.571 57.0319 284.692C56.8564 283.813 56.3259 282.714 55.4404 281.396C54.3681 279.787 53.7756 278.407 53.6628 277.255C53.5388 276.114 53.8928 275.112 54.7247 274.247C55.2239 273.728 55.8048 273.343 56.4676 273.093C57.1193 272.854 57.802 272.756 58.5157 272.798C59.2069 272.842 59.9119 273.02 60.6309 273.335C61.3272 273.649 61.9752 274.095 62.5748 274.672C63.0707 275.149 63.4882 275.672 63.8274 276.243C64.1555 276.825 64.3934 277.42 64.5409 278.028C64.6885 278.637 64.7456 279.247 64.7122 279.858C64.6673 280.459 64.5143 281.033 64.2534 281.581L62.7151 281.034Z" fill="#F6F6F6"/>
<path d="M38.2598 273.519L51.1214 262.711L52.2795 264.089L39.4179 274.897L38.2598 273.519Z" fill="#F6F6F6"/>
<path d="M30.2989 247.977C29.4937 248.5 28.8337 249.129 28.3189 249.864C27.7906 250.607 27.4217 251.391 27.212 252.214C27.0023 253.036 26.9566 253.877 27.0749 254.735C27.1932 255.593 27.4963 256.397 27.9842 257.149C28.4722 257.9 29.0839 258.505 29.8195 258.962C30.5551 259.419 31.3414 259.719 32.1785 259.863C33.0155 260.006 33.8811 259.988 34.7753 259.808C35.6561 259.636 36.4991 259.289 37.3042 258.766C38.1094 258.244 38.7761 257.61 39.3044 256.867C39.8192 256.132 40.1771 255.346 40.3781 254.51C40.5791 253.674 40.6204 252.827 40.5021 251.969C40.3838 251.111 40.085 250.313 39.6058 249.575C39.1179 248.823 38.5105 248.225 37.7836 247.782C37.048 247.325 36.2617 247.024 35.4247 246.881C34.5876 246.738 33.7287 246.752 32.8479 246.923C31.9537 247.103 31.1041 247.454 30.2989 247.977ZM38.3177 260.283C37.3112 260.937 36.2475 261.37 35.1266 261.583C34.0056 261.795 32.9183 261.795 31.8647 261.583C30.7976 261.379 29.8018 260.977 28.8771 260.375C27.939 259.782 27.1606 259.01 26.542 258.057C25.9234 257.104 25.5318 256.09 25.3673 255.014C25.1942 253.924 25.2359 252.857 25.4927 251.813C25.7407 250.756 26.19 249.758 26.8404 248.821C27.4774 247.892 28.2991 247.101 29.3056 246.447C30.312 245.794 31.3757 245.361 32.4967 245.148C33.6042 244.944 34.6915 244.944 35.7586 245.148C36.8169 245.338 37.8084 245.734 38.7331 246.335C39.6491 246.923 40.4164 247.694 41.035 248.647C41.6536 249.599 42.0495 250.62 42.2227 251.71C42.3959 252.799 42.3652 253.868 42.1306 254.917C41.8825 255.975 41.44 256.968 40.803 257.897C40.1526 258.834 39.3241 259.63 38.3177 260.283Z" fill="#F6F6F6"/>
<path d="M16.1434 239.236L24.8771 224.185L12.0087 229.86L11.2824 228.213L26.6543 221.434L27.458 223.257L18.712 238.34L31.6025 232.656L32.3287 234.303L16.9568 241.081L16.1434 239.236Z" fill="#F6F6F6"/>
<path d="M7.89325 210.29L16.2517 211.257L14.6505 205.276L7.89325 210.29ZM5.45332 209.899L19.9627 199.133L20.453 200.965L16.0996 204.192L18.0484 211.472L23.4321 212.093L23.9224 213.924L5.97465 211.847L5.45332 209.899Z" fill="#F6F6F6"/>
<path d="M173.789 181.154C174.235 184.556 174.681 187.884 175.127 191.138C175.722 194.392 176.019 197.129 176.019 199.348C176.019 203.193 175.201 206.226 173.566 208.444C171.93 210.663 169.626 211.772 166.652 211.772C163.679 211.772 161.3 210.737 159.516 208.666C157.881 206.448 157.063 203.49 157.063 199.791C157.063 197.425 157.36 194.614 157.955 191.36C158.55 188.106 158.996 184.778 159.293 181.376C157.212 182.855 154.61 184.852 151.487 187.366C148.365 189.733 145.689 191.434 143.459 192.469C140.485 193.949 137.735 194.688 135.207 194.688C131.491 194.688 128.963 193.135 127.625 190.029C126.436 187.366 126.51 184.704 127.848 182.041C129.186 179.379 131.342 177.382 134.315 176.051C135.207 175.755 136.471 175.311 138.107 174.719C139.891 173.98 141.675 173.24 143.459 172.501C145.392 171.761 147.25 171.095 149.034 170.504C150.818 169.764 152.157 169.172 153.049 168.729C152.008 168.433 150.595 167.989 148.811 167.397C147.027 166.658 145.094 165.918 143.013 165.179C141.08 164.291 139.222 163.478 137.438 162.738C135.653 161.998 134.241 161.407 133.2 160.963C130.227 159.484 128.145 157.413 126.956 154.75C125.915 151.94 126.138 149.352 127.625 146.985C129.26 144.174 131.862 142.769 135.43 142.769C137.512 142.769 139.519 143.213 141.452 144.1C142.641 144.692 143.979 145.506 145.466 146.541C147.102 147.429 148.737 148.464 150.372 149.647C152.008 150.831 153.569 152.014 155.056 153.197C156.691 154.381 158.104 155.416 159.293 156.304C158.847 152.606 158.327 149.13 157.732 145.875C157.286 142.473 157.063 139.737 157.063 137.666C157.063 134.116 157.955 131.232 159.739 129.013C161.523 126.646 163.828 125.463 166.652 125.463C169.329 125.463 171.559 126.646 173.343 129.013C175.127 131.38 176.019 134.338 176.019 137.888C176.019 139.959 175.722 142.695 175.127 146.097C174.681 149.352 174.161 152.754 173.566 156.304C176.985 153.937 179.959 151.94 182.486 150.313C185.014 148.686 187.318 147.429 189.4 146.541C192.373 145.062 195.273 144.322 198.098 144.322C201.368 144.322 203.822 145.58 205.457 148.094C206.944 150.609 207.092 153.197 205.903 155.86C204.713 158.374 202.409 160.667 198.99 162.738C197.205 163.921 194.901 165.031 192.076 166.066C189.251 166.954 185.609 167.915 181.148 168.951C182.486 169.394 184.048 169.912 185.832 170.504C187.616 171.095 189.4 171.687 191.184 172.279C192.968 172.87 194.604 173.462 196.09 174.054C197.577 174.497 198.618 174.867 199.212 175.163C202.335 176.494 204.565 178.639 205.903 181.598C207.241 184.408 207.241 187.144 205.903 189.807C204.267 192.765 201.74 194.244 198.321 194.244C195.644 194.244 192.373 193.209 188.508 191.138C186.278 189.955 183.75 188.328 180.925 186.257C178.249 184.186 175.87 182.485 173.789 181.154Z" fill="#81FEF0"/>
</svg>
